<?xml version="1.0" encoding="utf-8"?>
<!-- Generator: Adobe Illustrator 27.1.1, SVG Export Plug-In . SVG Version: 6.00 Build 0)  -->
<svg version="1.1" id="Ebene_1" xmlns="http://www.w3.org/2000/svg" xmlns:xlink="http://www.w3.org/1999/xlink" x="0px" y="0px"
	 viewBox="0 0 400 400" style="enable-background:new 0 0 400 400;" xml:space="preserve">
<style type="text/css">
	.st0{fill:#F5B811;}
	.st1{fill:#70C8F2;}
	.st2{font-family:'MyriadPro-Regular';}
	.st3{font-size:81.8661px;}
	.st4{letter-spacing:-6;}
</style>
<g>
	<g>
		<ellipse class="st0" cx="591.2" cy="5.2" rx="61.8" ry="61.8"/>
		<g>
			<path class="st0" d="M591.2-73.4c-4.3,0-7.8-3.5-7.8-7.8v-33.9c0-4.3,3.5-7.8,7.8-7.8s7.8,3.5,7.8,7.8v33.9
				C599-76.9,595.5-73.4,591.2-73.4z"/>
		</g>
		<g>
			<path class="st0" d="M504,13.8h-33.9c-4.3,0-7.8-3.5-7.8-7.8s3.5-7.8,7.8-7.8H504c4.3,0,7.8,3.5,7.8,7.8S508.3,13.8,504,13.8z"/>
		</g>
		<g>
			<path class="st0" d="M529.5-47.9c-2,0-4-0.8-5.5-2.3l-24-24c-3-3-3-8,0-11s8-3,11,0l24,24c3,3,3,8,0,11
				C533.5-48.6,531.5-47.9,529.5-47.9z"/>
		</g>
		<g>
			<path class="st0" d="M505.6,99.4c-2,0-4-0.8-5.5-2.3c-3-3-3-8,0-11l24-24c3-3,8-3,11,0s3,8,0,11l-24,24
				C509.5,98.7,507.6,99.4,505.6,99.4z"/>
		</g>
		<g>
			<path class="st0" d="M652.8-47.9c-2,0-4-0.8-5.5-2.3c-3-3-3-8,0-11l24-24c3-3,8-3,11,0s3,8,0,11l-24,24
				C656.8-48.6,654.8-47.9,652.8-47.9z"/>
		</g>
		<path class="st1" d="M763.2,29.2L763.2,29.2c-0.1-0.5,0-1,0-1.6c0-41.4-33.6-75-75-75s-75,33.6-75,75v0.1
			c-32.5,1.5-58.4,28.2-58.4,61.1c0,33.8,27.4,61.2,61.2,61.2h147.1c33.4,0,60.5-27.1,60.5-60.5C823.7,56.2,796.6,29.2,763.2,29.2z"
			/>
	</g>
	<text transform="matrix(1 0 0 1 44.6616 358.4034)" class="st2 st3 st4">SunClouds</text>
</g>
</svg>
