<?xml version="1.0" encoding="utf-8"?>
<!-- Generator: Adobe Illustrator 27.1.0, SVG Export Plug-In . SVG Version: 6.00 Build 0)  -->
<svg version="1.1" id="Ebene_1" xmlns="http://www.w3.org/2000/svg" xmlns:xlink="http://www.w3.org/1999/xlink" x="0px" y="0px"
	 viewBox="0 0 400 400" style="enable-background:new 0 0 400 400;" xml:space="preserve">
<style type="text/css">
	.st0{fill:#F5B811;}
	.st1{fill:#70C8F2;}
</style>
<g>
	
		<ellipse transform="matrix(0.7071 -0.7071 0.7071 0.7071 -92.037 160.8846)" class="st0" cx="148.2" cy="191.5" rx="61.8" ry="61.8"/>
	<g>
		<path class="st0" d="M148.2,113c-4.3,0-7.8-3.5-7.8-7.8V71.3c0-4.3,3.5-7.8,7.8-7.8c4.3,0,7.8,3.5,7.8,7.8v33.9
			C156,109.5,152.5,113,148.2,113z"/>
	</g>
	<g>
		<path class="st0" d="M61,200.2H27.1c-4.3,0-7.8-3.5-7.8-7.8c0-4.3,3.5-7.8,7.8-7.8H61c4.3,0,7.8,3.5,7.8,7.8
			C68.8,196.7,65.3,200.2,61,200.2z"/>
	</g>
	<g>
		<path class="st0" d="M86.5,138.5c-2,0-4-0.8-5.5-2.3l-24-24c-3-3-3-8,0-11c3-3,8-3,11,0l24,24c3,3,3,8,0,11
			C90.5,137.8,88.5,138.5,86.5,138.5z"/>
	</g>
	<g>
		<path class="st0" d="M62.6,285.8c-2,0-4-0.8-5.5-2.3c-3-3-3-8,0-11l24-24c3-3,8-3,11,0c3,3,3,8,0,11l-24,24
			C66.5,285.1,64.6,285.8,62.6,285.8z"/>
	</g>
	<g>
		<path class="st0" d="M209.8,138.5c-2,0-4-0.8-5.5-2.3c-3-3-3-8,0-11l24-24c3-3,8-3,11,0c3,3,3,8,0,11l-24,24
			C213.8,137.8,211.8,138.5,209.8,138.5z"/>
	</g>
	<path class="st1" d="M320.2,215.6C320.2,215.6,320.2,215.6,320.2,215.6c-0.1-0.5,0-1,0-1.6c0-41.4-33.6-75-75-75
		c-41.4,0-75,33.6-75,75c0,0,0,0.1,0,0.1c-32.5,1.5-58.4,28.2-58.4,61.1c0,33.8,27.4,61.2,61.2,61.2h147.1
		c33.4,0,60.5-27.1,60.5-60.5C380.7,242.6,353.6,215.6,320.2,215.6z"/>
</g>
</svg>
