<?xml version="1.0" encoding="utf-8"?>
<!-- Generator: Adobe Illustrator 27.1.0, SVG Export Plug-In . SVG Version: 6.00 Build 0)  -->
<svg version="1.1" id="Ebene_1" xmlns="http://www.w3.org/2000/svg" xmlns:xlink="http://www.w3.org/1999/xlink" x="0px" y="0px"
	 viewBox="0 0 400 400" style="enable-background:new 0 0 400 400;" xml:space="preserve">
<style type="text/css">
	.st0{fill:#F5B811;}
	.st1{fill:#70C8F2;}
	.st2{font-family:'MyriadPro-Regular';}
	.st3{font-size:81.8661px;}
	.st4{letter-spacing:-6;}
</style>
<g>
	<g>
		
			<ellipse transform="matrix(0.7071 -0.7071 0.7071 0.7071 -62.0628 148.4689)" class="st0" cx="148.2" cy="149.2" rx="61.8" ry="61.8"/>
		<g>
			<path class="st0" d="M148.2,70.6c-4.3,0-7.8-3.5-7.8-7.8V28.9c0-4.3,3.5-7.8,7.8-7.8c4.3,0,7.8,3.5,7.8,7.8v33.9
				C156,67.1,152.5,70.6,148.2,70.6z"/>
		</g>
		<g>
			<path class="st0" d="M61,157.8H27.1c-4.3,0-7.8-3.5-7.8-7.8c0-4.3,3.5-7.8,7.8-7.8H61c4.3,0,7.8,3.5,7.8,7.8
				C68.8,154.3,65.3,157.8,61,157.8z"/>
		</g>
		<g>
			<path class="st0" d="M86.5,96.1c-2,0-4-0.8-5.5-2.3l-24-24c-3-3-3-8,0-11c3-3,8-3,11,0l24,24c3,3,3,8,0,11
				C90.5,95.4,88.5,96.1,86.5,96.1z"/>
		</g>
		<g>
			<path class="st0" d="M62.6,243.4c-2,0-4-0.8-5.5-2.3c-3-3-3-8,0-11l24-24c3-3,8-3,11,0c3,3,3,8,0,11l-24,24
				C66.5,242.7,64.6,243.4,62.6,243.4z"/>
		</g>
		<g>
			<path class="st0" d="M209.8,96.1c-2,0-4-0.8-5.5-2.3c-3-3-3-8,0-11l24-24c3-3,8-3,11,0c3,3,3,8,0,11l-24,24
				C213.8,95.4,211.8,96.1,209.8,96.1z"/>
		</g>
		<path class="st1" d="M320.2,173.2C320.2,173.2,320.2,173.2,320.2,173.2c-0.1-0.5,0-1,0-1.6c0-41.4-33.6-75-75-75
			c-41.4,0-75,33.6-75,75c0,0,0,0.1,0,0.1c-32.5,1.5-58.4,28.2-58.4,61.1c0,33.8,27.4,61.2,61.2,61.2h147.1
			c33.4,0,60.5-27.1,60.5-60.5C380.7,200.2,353.6,173.2,320.2,173.2z"/>
	</g>
	<text transform="matrix(1 0 0 1 44.6616 358.4034)" class="st2 st3 st4">SunClouds</text>
</g>
</svg>
